<?xml version="1.0" encoding="UTF-8" standalone="no"?>
<svg version="1.1" width="4000" height="4000" viewBox="0 0 4000 4000" xmlns="http://www.w3.org/2000/svg">
  <g>
    <path d="m 16427.8,10941.9 c 1874.3,890.9 3999.5,2418.1 6001.6,4420.3 2531.7,2531.7 4304.1,5260.3 4990.8,7429.4 -2169.1,-686.7 -4897.7,-2459.1 -7429.4,-4990.8 -1903.1,-1903.2 -3377.2,-3917.5 -4283.5,-5721.9 635,1916.8 1017.1,4383.4 1017.1,7074.9 0,3580.4 -676.2,6763.1 -1724.4,8782.4 -1048.2,-2019.3 -1724.4,-5202 -1724.4,-8782.4 0,-2691.5 382.1,-5158.1 1017.1,-7074.9 -906.3,1804.4 -2380.4,3818.7 -4283.5,5721.9 -2531.74,2531.7 -5260.33,4304.1 -7429.4,4990.8 686.66,-2169.1 2459.06,-4897.7 4990.8,-7429.4 2002.12,-2002.2 4127.3,-3529.4 6001.6,-4420.3 -1321.7,406.7 -2980.8,648.8 -4782.3,648.8 -2531.74,0 -4782.23,-478.1 -6210.1,-1219.3 1427.87,-741.2 3678.36,-1219.3 6210.1,-1219.3 1404,0 2721.6,147 3860.3,404.4 -82.9,-77.7 -165.1,-157.3 -246.6,-238.8 -1266.2,-1266.1 -2076,-2707.2 -2300.8,-3910.6 1203.4,224.7 2644.5,1034.6 3910.7,2300.7 273.5,273.5 525.6,555.2 755.2,840.9 V 2295.1 c 0,-127.7 103.6,-231.3 231.3,-231.3 v 0 c 127.8,0 231.3,103.6 231.3,231.3 v 6253.6 c 229.6,-285.7 481.7,-567.4 755.2,-840.9 1266.2,-1266.1 2707.3,-2076 3910.7,-2300.7 -224.8,1203.4 -1034.6,2644.5 -2300.8,3910.6 -81.5,81.5 -163.7,161.1 -246.6,238.8 1138.7,-257.4 2456.3,-404.4 3860.3,-404.4 2531.7,0 4782.2,478.1 6210.1,1219.3 -1427.9,741.2 -3678.4,1219.3 -6210.1,1219.3 -1801.5,0 -3460.6,-242.1 -4782.3,-648.8" fill="#1a1a1a" transform="matrix(0.13333333,0,0,-0.13333333,0,4000)" />
  </g>
  <!-- background removed for masking -->
</svg>


